# xmcd
#
# Track frame offsets:
#	150
#	31283
#	53278
#	91004
#	114277
#	176486
#	220246
#	264253
#
# Disc length: 3765 seconds
#
# Revision: 0
# Processed by: cddbd v1.5.2PL0 Copyright (c) Steve Scherf et al.
# Submitted via: audiograbber 1.83.01
#
DISCID=560eb308
DTITLE=Grateful Dead - 74-05-21 Edmundson Pavilion, Seattle WA
DYEAR=1900
DGENRE=
TTITLE0=US Blues
TTITLE1=Big River
TTITLE2=Stella Blue
TTITLE3=Around and Around
TTITLE4=Eyes Of The World
TTITLE5=Wharf Rat
TTITLE6=Sugar Magnolia
TTITLE7=Johnny B Goode
EXTD=
EXTT0=
EXTT1=
EXTT2=
EXTT3=
EXTT4=
EXTT5=
EXTT6=
EXTT7=
PLAYORDER=
